<?xml version="1.0" encoding="UTF-8" standalone="no"?><!DOCTYPE svg PUBLIC "-//W3C//DTD SVG 1.1//EN" "http://www.w3.org/Graphics/SVG/1.1/DTD/svg11.dtd"><svg width="100%" height="100%" viewBox="0 0 931 137" version="1.1" xmlns="http://www.w3.org/2000/svg" xmlnsXlink="http://www.w3.org/1999/xlink" xml:space="preserve" xmlnsSerif="http://www.serif.com/" style="fill-rule:evenodd;clip-rule:evenodd;stroke-linejoin:round;stroke-miterlimit:2;"><g><g><path d="M9.763,128.16l-0.127,-116.056l24.196,0c5.305,0 9.826,0.815 13.562,2.445c3.737,1.63 6.798,3.803 9.182,6.52c2.385,2.716 4.093,5.841 5.126,9.372c1.032,3.532 1.55,7.199 1.554,11.003l0.005,4.238c0.004,3.151 -0.237,5.813 -0.722,7.987c-0.485,2.173 -1.213,4.075 -2.186,5.705c-1.837,3.042 -4.649,5.65 -8.436,7.824c3.9,1.847 6.772,4.564 8.616,8.15c1.844,3.586 2.77,8.476 2.776,14.67l0.008,6.52c0.011,10.214 -2.444,18.038 -7.364,23.472c-4.919,5.433 -12.792,8.15 -23.618,8.15l-22.572,0Zm16.505,-53.79l0.04,37.164l7.145,0c3.356,0 5.981,-0.489 7.875,-1.467c1.893,-0.978 3.326,-2.337 4.299,-4.075c0.972,-1.739 1.565,-3.804 1.779,-6.194c0.214,-2.391 0.319,-4.999 0.316,-7.824c-0.003,-2.934 -0.168,-5.488 -0.495,-7.661c-0.327,-2.174 -0.979,-4.021 -1.955,-5.542c-1.084,-1.522 -2.547,-2.635 -4.388,-3.342c-1.841,-0.706 -4.277,-1.059 -7.309,-1.059l-7.307,0Zm-0.051,-46.618l0.035,31.948l7.47,0c5.521,0 9.227,-1.386 11.119,-4.157c1.891,-2.771 2.834,-6.819 2.828,-12.143c-0.005,-5.216 -1.065,-9.128 -3.179,-11.736c-2.114,-2.608 -5.932,-3.912 -11.453,-3.912l-6.82,0Z" style="fill:#220d43;fill-rule:nonzero;"/><path d="M80.493,128.16l-0.09,-82.641l16.564,0l0.09,82.641l-16.564,0Zm-0.108,-99.43l-0.018,-16.626l16.563,0l0.018,16.626l-16.563,0Z" style="fill:#220d43;fill-rule:nonzero;"/><path d="M113.225,128.16l-0.127,-116.056l16.564,0l0.076,69.438l0.324,0l19.935,-36.023l16.563,0l-19.612,33.578l23.762,49.063l-18.025,0l-14.979,-35.697l-7.943,12.551l0.025,23.146l-16.563,0Z" style="fill:#220d43;fill-rule:nonzero;"/><path d="M226.788,93.115l-32.803,0l0.012,11.247c0.003,2.608 0.736,4.618 2.199,6.031c1.463,1.412 3.44,2.119 5.93,2.119c3.139,0 5.222,-0.924 6.249,-2.771c1.026,-1.848 1.647,-3.695 1.861,-5.542l16.564,0c0.008,7.28 -2.205,13.148 -6.639,17.604c-2.163,2.282 -4.759,4.075 -7.789,5.379c-3.03,1.304 -6.439,1.956 -10.228,1.956c-5.197,0 -9.609,-1.087 -13.238,-3.26c-3.63,-2.174 -6.42,-5.053 -8.373,-8.639c-1.193,-2.174 -2.008,-4.673 -2.444,-7.498c-0.436,-2.826 -0.656,-5.923 -0.66,-9.291l-0.029,-27.221c-0.004,-3.369 0.209,-6.466 0.639,-9.291c0.43,-2.826 1.239,-5.325 2.428,-7.498c1.945,-3.586 4.729,-6.466 8.353,-8.639c3.625,-2.174 8.035,-3.26 13.231,-3.26c3.79,0 7.228,0.652 10.314,1.956c3.087,1.304 5.714,3.097 7.882,5.379c4.336,4.89 6.508,11.029 6.516,18.419l0.025,22.82Zm-32.817,-13.04l16.239,0l-0.011,-9.454c-0.003,-3.152 -0.736,-5.515 -2.2,-7.091c-1.463,-1.575 -3.439,-2.363 -5.929,-2.363c-2.49,0 -4.465,0.788 -5.925,2.363c-1.46,1.576 -2.188,3.939 -2.184,7.091l0.01,9.454Z" style="fill:#220d43;fill-rule:nonzero;"/><path d="M258.961,27.752l0.039,36.186l9.419,0c2.923,0 5.25,-0.408 6.981,-1.223c1.731,-0.815 3.083,-1.983 4.056,-3.504c0.864,-1.522 1.458,-3.396 1.78,-5.624c0.322,-2.227 0.482,-4.808 0.479,-7.742c-0.003,-2.934 -0.169,-5.515 -0.496,-7.743c-0.327,-2.227 -0.979,-4.156 -1.955,-5.786c-2.06,-3.043 -5.959,-4.564 -11.697,-4.564l-8.606,0Zm-16.455,100.408l-0.126,-116.056l26.632,0c19.486,0 29.242,11.355 29.267,34.067c0.007,6.846 -1.042,12.659 -3.148,17.441c-2.106,4.781 -5.809,8.639 -11.111,11.573l17.921,52.975l-17.538,0l-15.481,-49.552l-9.906,0l0.054,49.552l-16.564,0Z" style="fill:#220d43;fill-rule:nonzero;"/><path d="M313.237,128.16l-0.09,-82.641l16.563,0l0.091,82.641l-16.564,0Zm-0.109,-99.43l-0.018,-16.626l16.564,0l0.018,16.626l-16.564,0Z" style="fill:#220d43;fill-rule:nonzero;"/><path d="M362.503,101.265c0.003,3.368 0.656,6.085 1.957,8.15c1.302,2.064 3.36,3.097 6.174,3.097c2.49,0 4.492,-0.951 6.006,-2.853c1.513,-1.901 2.268,-4.374 2.265,-7.416l-0.035,-32.111c-0.003,-2.608 -0.79,-4.754 -2.362,-6.439c-1.571,-1.684 -3.548,-2.526 -5.93,-2.526c-3.139,0 -5.276,0.978 -6.411,2.934c-1.134,1.956 -1.7,4.238 -1.697,6.846l0.033,30.318Zm16.43,26.895l-0.008,-7.498c-1.081,1.195 -2.108,2.309 -3.082,3.341c-0.973,1.033 -2.054,1.929 -3.244,2.69c-1.19,0.76 -2.543,1.358 -4.058,1.793c-1.515,0.434 -3.301,0.652 -5.358,0.652c-6.929,0 -11.749,-2.608 -14.461,-7.824c-0.977,-1.848 -1.683,-4.13 -2.119,-6.846c-0.436,-2.717 -0.656,-6.357 -0.661,-10.921l-0.035,-31.459c-0.006,-5.977 0.151,-10.378 0.473,-13.203c0.644,-5.434 3.183,-9.509 7.619,-12.225c2.055,-1.413 5.14,-2.119 9.254,-2.119c3.248,0 6.144,0.733 8.69,2.2c2.546,1.467 4.74,3.559 6.584,6.276l0.324,0l-0.044,-40.913l16.563,0l0.127,116.056l-16.564,0Z" style="fill:#220d43;fill-rule:nonzero;"/><path d="M459.531,93.115l-32.802,0l0.012,11.247c0.003,2.608 0.736,4.618 2.199,6.031c1.463,1.412 3.439,2.119 5.929,2.119c3.14,0 5.223,-0.924 6.249,-2.771c1.027,-1.848 1.647,-3.695 1.862,-5.542l16.563,0c0.008,7.28 -2.205,13.148 -6.638,17.604c-2.163,2.282 -4.759,4.075 -7.789,5.379c-3.03,1.304 -6.439,1.956 -10.229,1.956c-5.196,0 -9.609,-1.087 -13.238,-3.26c-3.629,-2.174 -6.42,-5.053 -8.372,-8.639c-1.193,-2.174 -2.008,-4.673 -2.444,-7.498c-0.436,-2.826 -0.656,-5.923 -0.66,-9.291l-0.03,-27.221c-0.003,-3.369 0.21,-6.466 0.64,-9.291c0.43,-2.826 1.239,-5.325 2.427,-7.498c1.945,-3.586 4.73,-6.466 8.354,-8.639c3.624,-2.174 8.035,-3.26 13.231,-3.26c3.789,0 7.227,0.652 10.314,1.956c3.087,1.304 5.714,3.097 7.882,5.379c4.335,4.89 6.507,11.029 6.515,18.419l0.025,22.82Zm-32.817,-13.04l16.239,0l-0.01,-9.454c-0.003,-3.152 -0.737,-5.515 -2.2,-7.091c-1.463,-1.575 -3.44,-2.363 -5.93,-2.363c-2.49,0 -4.465,0.788 -5.924,2.363c-1.46,1.576 -2.188,3.939 -2.185,7.091l0.01,9.454Z" style="fill:#220d43;fill-rule:nonzero;"/><path d="M504.253,68.665c-0.112,-2.826 -1.007,-4.945 -2.687,-6.357c-1.679,-1.413 -3.601,-2.119 -5.767,-2.119c-2.598,0 -4.6,0.842 -6.005,2.526c-1.406,1.685 -2.107,3.613 -2.105,5.787c0.002,1.521 0.382,3.015 1.142,4.482c0.759,1.467 2.709,2.798 5.85,3.994l9.748,3.912c6.173,2.39 10.426,5.65 12.758,9.78c2.332,4.129 3.501,8.639 3.506,13.529c0.004,3.477 -0.615,6.71 -1.857,9.698c-1.242,2.989 -2.944,5.624 -5.107,7.906c-2.162,2.282 -4.759,4.075 -7.788,5.379c-3.03,1.304 -6.331,1.956 -9.904,1.956c-6.712,0 -12.344,-2.119 -16.895,-6.357c-2.276,-2.065 -4.119,-4.646 -5.53,-7.743c-1.411,-3.097 -2.173,-6.71 -2.285,-10.839l15.589,0c0.327,2.282 1.114,4.401 2.362,6.357c1.247,1.956 3.44,2.934 6.58,2.934c2.381,0 4.518,-0.788 6.411,-2.364c1.893,-1.575 2.838,-3.776 2.835,-6.601c-0.003,-2.282 -0.6,-4.238 -1.793,-5.868c-1.192,-1.63 -3.359,-3.043 -6.5,-4.238l-7.96,-2.934c-5.199,-1.956 -9.289,-4.863 -12.27,-8.721c-2.981,-3.857 -4.475,-8.557 -4.481,-14.099c-0.004,-3.478 0.642,-6.71 1.938,-9.699c1.296,-2.988 3.079,-5.569 5.35,-7.742c2.163,-2.174 4.705,-3.831 7.627,-4.972c2.922,-1.141 6.061,-1.711 9.417,-1.711c3.356,0 6.469,0.597 9.339,1.793c2.87,1.195 5.335,2.879 7.394,5.053c2.06,2.173 3.686,4.754 4.88,7.742c1.195,2.989 1.793,6.167 1.797,9.536l-15.589,0Z" style="fill:#220d43;fill-rule:nonzero;"/><path d="M561.57,128.16l-0.019,-17.278l-32.965,0l-0.017,-15.648l23.781,-83.13l17.538,0l-24.755,83.13l16.401,0l-0.036,-33.089l16.564,0l0.036,33.089l7.957,0l0.017,15.648l-7.957,0l0.019,17.278l-16.564,0Z" style="fill:#220d43;fill-rule:nonzero;"/><path d="M651.336,12.104l0.098,89.976c0.004,3.803 -0.669,7.308 -2.019,10.513c-1.349,3.206 -3.268,6.058 -5.755,8.558c-2.487,2.499 -5.354,4.455 -8.6,5.868c-3.247,1.412 -6.71,2.119 -10.391,2.119c-3.681,0 -7.119,-0.707 -10.314,-2.119c-3.195,-1.413 -6.039,-3.369 -8.532,-5.868c-2.492,-2.5 -4.444,-5.352 -5.855,-8.558c-1.411,-3.205 -2.118,-6.71 -2.123,-10.513l-0.098,-89.976l16.564,0l0.096,88.346c0.005,4.129 0.983,7.172 2.933,9.128c1.951,1.956 4.388,2.934 7.311,2.934c2.923,0 5.358,-0.978 7.304,-2.934c1.947,-1.956 2.918,-4.999 2.913,-9.128l-0.096,-88.346l16.564,0Z" style="fill:#220d43;fill-rule:nonzero;"/><path d="M668.604,128.16l-0.018,-16.626l16.564,0l0.018,16.626l-16.564,0Z" style="fill:#220d43;fill-rule:nonzero;"/><path d="M718.848,104.362c0.003,2.608 0.736,4.618 2.199,6.031c1.463,1.412 3.439,2.119 5.929,2.119c3.14,0 5.223,-0.924 6.249,-2.771c1.027,-1.848 1.647,-3.695 1.862,-5.542l16.563,0c0.008,7.28 -2.205,13.148 -6.638,17.604c-2.163,2.282 -4.759,4.075 -7.789,5.379c-3.03,1.304 -6.44,1.956 -10.229,1.956c-5.196,0 -9.609,-1.087 -13.238,-3.26c-3.629,-2.174 -6.42,-5.053 -8.372,-8.639c-1.194,-2.174 -2.008,-4.673 -2.444,-7.498c-0.436,-2.826 -0.656,-5.923 -0.66,-9.291l-0.03,-27.221c-0.003,-3.369 0.21,-6.466 0.64,-9.291c0.43,-2.826 1.239,-5.325 2.427,-7.498c1.945,-3.586 4.73,-6.466 8.354,-8.639c3.624,-2.174 8.035,-3.26 13.231,-3.26c3.789,0 7.227,0.652 10.314,1.956c3.087,1.304 5.714,3.097 7.882,5.379c4.335,4.89 6.507,11.247 6.516,19.071l-16.564,0c-0.003,-3.369 -0.737,-5.841 -2.2,-7.417c-1.463,-1.575 -3.44,-2.363 -5.93,-2.363c-2.49,0 -4.465,0.788 -5.924,2.363c-1.46,1.576 -2.188,3.939 -2.185,7.091l0.037,33.741Z" style="fill:#220d43;fill-rule:nonzero;"/><path d="M762.425,73.229c-0.003,-3.369 0.21,-6.466 0.64,-9.291c0.43,-2.826 1.239,-5.325 2.428,-7.498c1.944,-3.586 4.729,-6.466 8.353,-8.639c3.624,-2.174 8.035,-3.26 13.231,-3.26c5.197,0 9.609,1.086 13.239,3.26c3.629,2.173 6.419,5.053 8.372,8.639c1.193,2.173 2.008,4.672 2.444,7.498c0.436,2.825 0.656,5.922 0.66,9.291l0.029,27.221c0.004,3.368 -0.209,6.465 -0.639,9.291c-0.43,2.825 -1.239,5.324 -2.428,7.498c-1.944,3.586 -4.729,6.465 -8.353,8.639c-3.625,2.173 -8.035,3.26 -13.231,3.26c-5.197,0 -9.61,-1.087 -13.239,-3.26c-3.629,-2.174 -6.42,-5.053 -8.372,-8.639c-1.193,-2.174 -2.008,-4.673 -2.444,-7.498c-0.436,-2.826 -0.656,-5.923 -0.66,-9.291l-0.03,-27.221Zm16.597,29.829c0.003,3.151 0.736,5.515 2.2,7.09c1.463,1.576 3.439,2.364 5.929,2.364c2.49,0 4.465,-0.788 5.925,-2.364c1.46,-1.575 2.188,-3.939 2.185,-7.09l-0.036,-32.437c-0.003,-3.152 -0.737,-5.515 -2.2,-7.091c-1.463,-1.575 -3.44,-2.363 -5.93,-2.363c-2.49,0 -4.464,0.788 -5.924,2.363c-1.46,1.576 -2.188,3.939 -2.185,7.091l0.036,32.437Z" style="fill:#220d43;fill-rule:nonzero;"/><path d="M826.558,128.16l-0.09,-82.641l16.563,0l0.009,7.987l0.325,0c1.729,-2.608 3.811,-4.754 6.245,-6.439c2.434,-1.684 5.545,-2.526 9.334,-2.526c3.573,0 6.551,0.869 8.935,2.608c2.383,1.738 4.334,3.64 5.852,5.705c2.054,-2.282 4.326,-4.238 6.814,-5.868c2.488,-1.63 5.951,-2.445 10.39,-2.445c2.057,0 4.168,0.353 6.334,1.059c2.166,0.707 4.116,1.875 5.85,3.505c1.734,1.63 3.144,3.722 4.229,6.275c1.085,2.554 1.63,5.678 1.634,9.373l0.069,63.407l-16.563,0l-0.063,-57.213c-0.003,-3.043 -0.709,-5.434 -2.119,-7.172c-1.409,-1.739 -3.413,-2.608 -6.011,-2.608c-3.139,0 -5.303,0.978 -6.492,2.934c-1.189,1.956 -1.781,4.781 -1.777,8.476l0.06,55.583l-16.563,0l-0.063,-57.213c-0.003,-3.043 -0.709,-5.434 -2.118,-7.172c-1.41,-1.739 -3.413,-2.608 -6.012,-2.608c-3.139,0 -5.303,0.978 -6.492,2.934c-1.189,1.956 -1.781,4.781 -1.777,8.476l0.061,55.583l-16.564,0Z" style="fill:#220d43;fill-rule:nonzero;"/></g><g><path d="M12.32,125.525l-0.127,-116.056l24.196,0c5.305,0 9.825,0.815 13.562,2.445c3.737,1.63 6.797,3.803 9.182,6.52c2.385,2.717 4.093,5.841 5.126,9.372c1.032,3.532 1.55,7.2 1.554,11.003l0.005,4.238c0.003,3.151 -0.237,5.814 -0.722,7.987c-0.485,2.173 -1.214,4.075 -2.186,5.705c-1.837,3.043 -4.649,5.651 -8.436,7.824c3.899,1.847 6.771,4.564 8.616,8.15c1.844,3.586 2.769,8.476 2.776,14.67l0.007,6.52c0.012,10.215 -2.443,18.039 -7.363,23.472c-4.92,5.433 -12.792,8.15 -23.618,8.15l-22.572,0Zm16.505,-53.79l0.04,37.164l7.145,0c3.356,0 5.981,-0.489 7.874,-1.467c1.894,-0.978 3.327,-2.336 4.299,-4.075c0.973,-1.739 1.566,-3.803 1.78,-6.194c0.214,-2.391 0.319,-4.999 0.316,-7.824c-0.003,-2.934 -0.168,-5.488 -0.495,-7.661c-0.328,-2.173 -0.979,-4.021 -1.955,-5.542c-1.084,-1.521 -2.547,-2.635 -4.388,-3.342c-1.841,-0.706 -4.278,-1.059 -7.309,-1.059l-7.307,0Zm-0.051,-46.618l0.035,31.948l7.469,0c5.522,0 9.228,-1.386 11.12,-4.157c1.891,-2.771 2.834,-6.818 2.828,-12.143c-0.006,-5.216 -1.065,-9.128 -3.179,-11.736c-2.114,-2.608 -5.932,-3.912 -11.453,-3.912l-6.82,0Z" style="fill:#da3d73;fill-rule:nonzero;"/><path d="M83.05,125.525l-0.09,-82.641l16.564,0l0.09,82.641l-16.564,0Zm-0.108,-99.43l-0.019,-16.626l16.564,0l0.018,16.626l-16.563,0Z" style="fill:#da3d73;fill-rule:nonzero;"/><path d="M115.781,125.525l-0.126,-116.056l16.564,0l0.075,69.438l0.325,0l19.935,-36.023l16.563,0l-19.612,33.578l23.762,49.063l-18.025,0l-14.979,-35.697l-7.943,12.551l0.025,23.146l-16.564,0Z" style="fill:#da3d73;fill-rule:nonzero;"/><path d="M229.344,90.48l-32.802,0l0.012,11.247c0.003,2.608 0.736,4.618 2.199,6.031c1.463,1.413 3.439,2.119 5.929,2.119c3.14,0 5.223,-0.924 6.249,-2.771c1.027,-1.847 1.647,-3.695 1.862,-5.542l16.563,0c0.008,7.281 -2.205,13.149 -6.638,17.604c-2.163,2.282 -4.759,4.075 -7.789,5.379c-3.03,1.304 -6.439,1.956 -10.228,1.956c-5.197,0 -9.61,-1.087 -13.239,-3.26c-3.629,-2.173 -6.42,-5.053 -8.372,-8.639c-1.193,-2.173 -2.008,-4.673 -2.444,-7.498c-0.436,-2.825 -0.656,-5.922 -0.66,-9.291l-0.03,-27.221c-0.003,-3.369 0.21,-6.466 0.64,-9.291c0.43,-2.825 1.239,-5.325 2.428,-7.498c1.944,-3.586 4.729,-6.466 8.353,-8.639c3.624,-2.173 8.035,-3.26 13.231,-3.26c3.789,0 7.227,0.652 10.314,1.956c3.087,1.304 5.714,3.097 7.882,5.379c4.336,4.89 6.507,11.03 6.515,18.419l0.025,22.82Zm-32.816,-13.04l16.238,0l-0.01,-9.454c-0.003,-3.151 -0.737,-5.515 -2.2,-7.091c-1.463,-1.575 -3.44,-2.363 -5.93,-2.363c-2.49,0 -4.464,0.788 -5.924,2.363c-1.46,1.576 -2.188,3.94 -2.185,7.091l0.011,9.454Z" style="fill:#da3d73;fill-rule:nonzero;"/><path d="M261.517,25.117l0.04,36.186l9.418,0c2.923,0 5.251,-0.408 6.982,-1.223c1.731,-0.815 3.083,-1.983 4.056,-3.504c0.864,-1.521 1.457,-3.396 1.78,-5.624c0.322,-2.227 0.482,-4.808 0.479,-7.742c-0.004,-2.934 -0.169,-5.515 -0.496,-7.743c-0.327,-2.227 -0.979,-4.156 -1.955,-5.786c-2.06,-3.043 -5.959,-4.564 -11.697,-4.564l-8.607,0Zm-16.454,100.408l-0.126,-116.056l26.631,0c19.487,0 29.243,11.356 29.268,34.067c0.007,6.846 -1.042,12.66 -3.148,17.441c-2.106,4.781 -5.81,8.639 -11.111,11.573l17.921,52.975l-17.538,0l-15.481,-49.552l-9.906,0l0.054,49.552l-16.564,0Z" style="fill:#da3d73;fill-rule:nonzero;"/><path d="M315.794,125.525l-0.09,-82.641l16.563,0l0.09,82.641l-16.563,0Zm-0.109,-99.43l-0.018,-16.626l16.564,0l0.018,16.626l-16.564,0Z" style="fill:#da3d73;fill-rule:nonzero;"/><path d="M365.059,98.63c0.004,3.369 0.657,6.085 1.958,8.15c1.301,2.065 3.359,3.097 6.174,3.097c2.49,0 4.492,-0.951 6.005,-2.853c1.514,-1.901 2.269,-4.373 2.266,-7.416l-0.035,-32.111c-0.003,-2.608 -0.79,-4.754 -2.362,-6.439c-1.571,-1.684 -3.548,-2.526 -5.93,-2.526c-3.139,0 -5.276,0.978 -6.411,2.934c-1.135,1.956 -1.7,4.238 -1.698,6.846l0.033,30.318Zm16.431,26.895l-0.008,-7.498c-1.081,1.195 -2.109,2.309 -3.082,3.341c-0.973,1.033 -2.055,1.929 -3.245,2.69c-1.19,0.761 -2.542,1.358 -4.057,1.793c-1.516,0.435 -3.302,0.652 -5.359,0.652c-6.928,0 -11.749,-2.608 -14.461,-7.824c-0.976,-1.847 -1.682,-4.129 -2.118,-6.846c-0.436,-2.717 -0.657,-6.357 -0.662,-10.921l-0.034,-31.459c-0.007,-5.977 0.151,-10.378 0.473,-13.203c0.643,-5.433 3.183,-9.508 7.619,-12.225c2.055,-1.413 5.14,-2.119 9.254,-2.119c3.247,0 6.144,0.733 8.69,2.2c2.545,1.467 4.74,3.559 6.583,6.276l0.325,0l-0.045,-40.913l16.564,0l0.127,116.056l-16.564,0Z" style="fill:#da3d73;fill-rule:nonzero;"/><path d="M462.088,90.48l-32.803,0l0.013,11.247c0.003,2.608 0.736,4.618 2.199,6.031c1.463,1.413 3.439,2.119 5.929,2.119c3.14,0 5.223,-0.924 6.249,-2.771c1.026,-1.847 1.647,-3.695 1.861,-5.542l16.564,0c0.008,7.281 -2.205,13.149 -6.639,17.604c-2.162,2.282 -4.759,4.075 -7.788,5.379c-3.03,1.304 -6.44,1.956 -10.229,1.956c-5.196,0 -9.609,-1.087 -13.238,-3.26c-3.629,-2.173 -6.42,-5.053 -8.372,-8.639c-1.194,-2.173 -2.008,-4.673 -2.444,-7.498c-0.437,-2.825 -0.656,-5.922 -0.66,-9.291l-0.03,-27.221c-0.004,-3.369 0.21,-6.466 0.64,-9.291c0.43,-2.825 1.239,-5.325 2.427,-7.498c1.945,-3.586 4.73,-6.466 8.354,-8.639c3.624,-2.173 8.035,-3.26 13.231,-3.26c3.789,0 7.227,0.652 10.314,1.956c3.087,1.304 5.714,3.097 7.881,5.379c4.336,4.89 6.508,11.03 6.516,18.419l0.025,22.82Zm-32.817,-13.04l16.239,0l-0.01,-9.454c-0.004,-3.151 -0.737,-5.515 -2.2,-7.091c-1.463,-1.575 -3.44,-2.363 -5.93,-2.363c-2.49,0 -4.465,0.788 -5.925,2.363c-1.459,1.576 -2.187,3.94 -2.184,7.091l0.01,9.454Z" style="fill:#da3d73;fill-rule:nonzero;"/><path d="M506.81,66.03c-0.112,-2.825 -1.007,-4.944 -2.687,-6.357c-1.679,-1.413 -3.602,-2.119 -5.767,-2.119c-2.598,0 -4.6,0.842 -6.005,2.526c-1.406,1.685 -2.108,3.614 -2.105,5.787c0.001,1.521 0.382,3.015 1.141,4.482c0.76,1.467 2.71,2.799 5.851,3.994l9.747,3.912c6.174,2.391 10.426,5.651 12.759,9.78c2.332,4.129 3.5,8.639 3.506,13.529c0.003,3.477 -0.616,6.71 -1.857,9.698c-1.242,2.989 -2.944,5.624 -5.107,7.906c-2.163,2.282 -4.759,4.075 -7.789,5.379c-3.03,1.304 -6.331,1.956 -9.903,1.956c-6.712,0 -12.344,-2.119 -16.896,-6.357c-2.275,-2.065 -4.119,-4.646 -5.529,-7.743c-1.411,-3.097 -2.173,-6.71 -2.286,-10.839l15.59,0c0.327,2.282 1.114,4.401 2.361,6.357c1.247,1.956 3.441,2.934 6.58,2.934c2.382,0 4.519,-0.788 6.412,-2.364c1.893,-1.575 2.838,-3.776 2.835,-6.601c-0.003,-2.282 -0.6,-4.238 -1.793,-5.868c-1.193,-1.63 -3.359,-3.043 -6.5,-4.238l-7.96,-2.934c-5.199,-1.956 -9.289,-4.863 -12.27,-8.721c-2.982,-3.857 -4.475,-8.557 -4.481,-14.099c-0.004,-3.477 0.642,-6.71 1.938,-9.699c1.296,-2.988 3.079,-5.569 5.35,-7.742c2.163,-2.173 4.705,-3.831 7.627,-4.972c2.922,-1.141 6.061,-1.711 9.417,-1.711c3.356,0 6.469,0.598 9.339,1.793c2.87,1.195 5.335,2.88 7.394,5.053c2.059,2.173 3.686,4.754 4.88,7.742c1.194,2.989 1.793,6.167 1.797,9.536l-15.589,0Z" style="fill:#da3d73;fill-rule:nonzero;"/><path d="M564.127,125.525l-0.019,-17.278l-32.965,0l-0.017,-15.648l23.78,-83.13l17.538,0l-24.754,83.13l16.401,0l-0.036,-33.089l16.563,0l0.036,33.089l7.957,0l0.018,15.648l-7.958,0l0.019,17.278l-16.563,0Z" style="fill:#da3d73;fill-rule:nonzero;"/><path d="M653.892,9.469l0.099,89.976c0.004,3.803 -0.669,7.308 -2.019,10.513c-1.35,3.206 -3.268,6.059 -5.755,8.558c-2.488,2.499 -5.354,4.455 -8.6,5.868c-3.247,1.413 -6.71,2.119 -10.391,2.119c-3.681,0 -7.119,-0.706 -10.314,-2.119c-3.195,-1.413 -6.039,-3.369 -8.532,-5.868c-2.493,-2.499 -4.444,-5.352 -5.855,-8.558c-1.411,-3.205 -2.119,-6.71 -2.123,-10.513l-0.098,-89.976l16.564,0l0.096,88.346c0.005,4.129 0.982,7.172 2.933,9.128c1.951,1.956 4.388,2.934 7.311,2.934c2.923,0 5.358,-0.978 7.304,-2.934c1.947,-1.956 2.918,-4.999 2.913,-9.128l-0.096,-88.346l16.563,0Z" style="fill:#da3d73;fill-rule:nonzero;"/><path d="M671.161,125.525l-0.018,-16.626l16.564,0l0.018,16.626l-16.564,0Z" style="fill:#da3d73;fill-rule:nonzero;"/><path d="M721.405,101.727c0.003,2.608 0.735,4.618 2.199,6.031c1.463,1.413 3.439,2.119 5.929,2.119c3.14,0 5.223,-0.924 6.249,-2.771c1.026,-1.847 1.647,-3.695 1.861,-5.542l16.564,0c0.008,7.281 -2.205,13.149 -6.639,17.604c-2.162,2.282 -4.759,4.075 -7.788,5.379c-3.03,1.304 -6.44,1.956 -10.229,1.956c-5.196,0 -9.609,-1.087 -13.238,-3.26c-3.629,-2.173 -6.42,-5.053 -8.373,-8.639c-1.193,-2.173 -2.007,-4.673 -2.444,-7.498c-0.436,-2.825 -0.656,-5.922 -0.659,-9.291l-0.03,-27.221c-0.004,-3.369 0.21,-6.466 0.639,-9.291c0.43,-2.825 1.24,-5.325 2.428,-7.498c1.945,-3.586 4.729,-6.466 8.354,-8.639c3.624,-2.173 8.034,-3.26 13.231,-3.26c3.789,0 7.227,0.652 10.314,1.956c3.086,1.304 5.714,3.097 7.881,5.379c4.336,4.89 6.508,11.247 6.517,19.071l-16.564,0c-0.004,-3.369 -0.737,-5.841 -2.2,-7.417c-1.463,-1.575 -3.44,-2.363 -5.93,-2.363c-2.49,0 -4.465,0.788 -5.925,2.363c-1.459,1.576 -2.188,3.94 -2.184,7.091l0.037,33.741Z" style="fill:#da3d73;fill-rule:nonzero;"/><path d="M764.982,70.594c-0.003,-3.369 0.21,-6.466 0.64,-9.291c0.43,-2.825 1.239,-5.325 2.427,-7.498c1.945,-3.586 4.73,-6.466 8.354,-8.639c3.624,-2.173 8.035,-3.26 13.231,-3.26c5.196,0 9.609,1.087 13.238,3.26c3.629,2.173 6.42,5.053 8.373,8.639c1.193,2.173 2.008,4.673 2.444,7.498c0.436,2.825 0.656,5.922 0.659,9.291l0.03,27.221c0.004,3.369 -0.209,6.466 -0.639,9.291c-0.43,2.825 -1.239,5.325 -2.428,7.498c-1.945,3.586 -4.729,6.466 -8.354,8.639c-3.624,2.173 -8.034,3.26 -13.231,3.26c-5.196,0 -9.609,-1.087 -13.238,-3.26c-3.629,-2.173 -6.42,-5.053 -8.372,-8.639c-1.194,-2.173 -2.008,-4.673 -2.444,-7.498c-0.436,-2.825 -0.656,-5.922 -0.66,-9.291l-0.03,-27.221Zm16.596,29.829c0.004,3.151 0.737,5.515 2.2,7.09c1.464,1.576 3.44,2.364 5.93,2.364c2.49,0 4.465,-0.788 5.925,-2.364c1.46,-1.575 2.188,-3.939 2.184,-7.09l-0.035,-32.437c-0.004,-3.151 -0.737,-5.515 -2.2,-7.091c-1.463,-1.575 -3.44,-2.363 -5.93,-2.363c-2.49,0 -4.465,0.788 -5.924,2.363c-1.46,1.576 -2.188,3.94 -2.185,7.091l0.035,32.437Z" style="fill:#da3d73;fill-rule:nonzero;"/><path d="M829.115,125.525l-0.09,-82.641l16.563,0l0.009,7.987l0.325,0c1.729,-2.608 3.811,-4.754 6.245,-6.439c2.434,-1.684 5.545,-2.526 9.334,-2.526c3.573,0 6.551,0.869 8.934,2.608c2.384,1.739 4.335,3.64 5.853,5.705c2.054,-2.282 4.325,-4.238 6.814,-5.868c2.488,-1.63 5.951,-2.445 10.39,-2.445c2.057,0 4.168,0.353 6.334,1.059c2.166,0.707 4.116,1.875 5.85,3.505c1.734,1.63 3.144,3.722 4.229,6.275c1.085,2.554 1.63,5.678 1.634,9.373l0.069,63.407l-16.563,0l-0.063,-57.213c-0.003,-3.043 -0.71,-5.433 -2.119,-7.172c-1.409,-1.739 -3.413,-2.608 -6.011,-2.608c-3.14,0 -5.304,0.978 -6.492,2.934c-1.189,1.956 -1.781,4.781 -1.777,8.476l0.06,55.583l-16.563,0l-0.063,-57.213c-0.003,-3.043 -0.709,-5.433 -2.119,-7.172c-1.409,-1.739 -3.413,-2.608 -6.011,-2.608c-3.139,0 -5.304,0.978 -6.492,2.934c-1.189,1.956 -1.781,4.781 -1.777,8.476l0.06,55.583l-16.563,0Z" style="fill:#da3d73;fill-rule:nonzero;"/></g><g><path d="M15.18,123.662l-0.127,-116.056l24.196,0c5.305,0 9.826,0.815 13.562,2.445c3.737,1.63 6.798,3.803 9.182,6.52c2.385,2.716 4.094,5.841 5.126,9.372c1.032,3.532 1.55,7.199 1.555,11.003l0.004,4.238c0.004,3.151 -0.237,5.813 -0.722,7.987c-0.485,2.173 -1.213,4.075 -2.186,5.705c-1.837,3.042 -4.649,5.65 -8.436,7.824c3.9,1.847 6.772,4.564 8.616,8.15c1.844,3.586 2.77,8.476 2.777,14.67l0.007,6.52c0.011,10.214 -2.444,18.038 -7.363,23.472c-4.92,5.433 -12.793,8.15 -23.619,8.15l-22.572,0Zm16.505,-53.79l0.04,37.164l7.146,0c3.356,0 5.98,-0.489 7.874,-1.467c1.893,-0.978 3.326,-2.337 4.299,-4.075c0.972,-1.739 1.565,-3.804 1.779,-6.194c0.214,-2.391 0.319,-4.999 0.316,-7.824c-0.003,-2.934 -0.168,-5.488 -0.495,-7.661c-0.327,-2.174 -0.979,-4.021 -1.955,-5.542c-1.084,-1.522 -2.547,-2.635 -4.388,-3.342c-1.841,-0.706 -4.277,-1.059 -7.309,-1.059l-7.307,0Zm-0.051,-46.618l0.035,31.948l7.47,0c5.521,0 9.227,-1.386 11.119,-4.157c1.891,-2.771 2.834,-6.819 2.828,-12.143c-0.005,-5.216 -1.065,-9.128 -3.179,-11.736c-2.114,-2.608 -5.931,-3.912 -11.453,-3.912l-6.82,0Z" style="fill:#57cedc;fill-rule:nonzero;"/><path d="M85.91,123.662l-0.09,-82.641l16.564,0l0.09,82.641l-16.564,0Zm-0.108,-99.43l-0.018,-16.626l16.563,0l0.019,16.626l-16.564,0Z" style="fill:#57cedc;fill-rule:nonzero;"/><path d="M118.642,123.662l-0.127,-116.056l16.564,0l0.076,69.438l0.324,0l19.935,-36.023l16.564,0l-19.613,33.578l23.762,49.063l-18.025,0l-14.978,-35.697l-7.944,12.551l0.025,23.146l-16.563,0Z" style="fill:#57cedc;fill-rule:nonzero;"/><path d="M232.205,88.617l-32.803,0l0.012,11.247c0.003,2.608 0.736,4.618 2.199,6.031c1.463,1.412 3.44,2.119 5.93,2.119c3.139,0 5.222,-0.924 6.249,-2.771c1.026,-1.848 1.647,-3.695 1.861,-5.542l16.564,0c0.008,7.28 -2.205,13.148 -6.639,17.604c-2.163,2.282 -4.759,4.075 -7.789,5.379c-3.03,1.304 -6.439,1.956 -10.228,1.956c-5.197,0 -9.609,-1.087 -13.238,-3.26c-3.629,-2.174 -6.42,-5.053 -8.373,-8.639c-1.193,-2.174 -2.008,-4.673 -2.444,-7.498c-0.436,-2.826 -0.656,-5.923 -0.66,-9.291l-0.029,-27.221c-0.004,-3.369 0.209,-6.466 0.639,-9.291c0.43,-2.826 1.239,-5.325 2.428,-7.498c1.945,-3.586 4.729,-6.466 8.353,-8.639c3.625,-2.174 8.035,-3.26 13.232,-3.26c3.789,0 7.227,0.652 10.313,1.956c3.087,1.304 5.714,3.097 7.882,5.379c4.336,4.89 6.508,11.029 6.516,18.419l0.025,22.82Zm-32.817,-13.04l16.239,0l-0.011,-9.454c-0.003,-3.152 -0.736,-5.515 -2.199,-7.091c-1.464,-1.575 -3.44,-2.363 -5.93,-2.363c-2.49,0 -4.465,0.788 -5.925,2.363c-1.46,1.576 -2.188,3.939 -2.184,7.091l0.01,9.454Z" style="fill:#57cedc;fill-rule:nonzero;"/><path d="M264.378,23.254l0.039,36.186l9.419,0c2.923,0 5.25,-0.408 6.981,-1.223c1.731,-0.815 3.083,-1.983 4.056,-3.504c0.864,-1.522 1.458,-3.396 1.78,-5.624c0.322,-2.227 0.482,-4.808 0.479,-7.742c-0.003,-2.934 -0.169,-5.515 -0.496,-7.743c-0.327,-2.227 -0.979,-4.156 -1.955,-5.786c-2.06,-3.043 -5.959,-4.564 -11.697,-4.564l-8.606,0Zm-16.454,100.408l-0.127,-116.056l26.632,0c19.486,0 29.242,11.355 29.267,34.067c0.007,6.846 -1.042,12.659 -3.148,17.441c-2.106,4.781 -5.809,8.639 -11.111,11.573l17.921,52.975l-17.538,0l-15.481,-49.552l-9.906,0l0.054,49.552l-16.563,0Z" style="fill:#57cedc;fill-rule:nonzero;"/><path d="M318.654,123.662l-0.09,-82.641l16.564,0l0.09,82.641l-16.564,0Zm-0.108,-99.43l-0.019,-16.626l16.564,0l0.018,16.626l-16.563,0Z" style="fill:#57cedc;fill-rule:nonzero;"/><path d="M367.92,96.767c0.003,3.368 0.656,6.085 1.957,8.15c1.302,2.064 3.36,3.097 6.175,3.097c2.489,0 4.491,-0.951 6.005,-2.853c1.513,-1.901 2.268,-4.374 2.265,-7.416l-0.035,-32.111c-0.003,-2.608 -0.79,-4.754 -2.362,-6.439c-1.571,-1.684 -3.548,-2.526 -5.929,-2.526c-3.14,0 -5.277,0.978 -6.412,2.934c-1.134,1.956 -1.7,4.238 -1.697,6.846l0.033,30.318Zm16.43,26.895l-0.008,-7.498c-1.081,1.195 -2.108,2.309 -3.082,3.341c-0.973,1.033 -2.054,1.929 -3.244,2.69c-1.19,0.76 -2.543,1.358 -4.058,1.793c-1.515,0.434 -3.301,0.652 -5.358,0.652c-6.929,0 -11.749,-2.608 -14.461,-7.824c-0.977,-1.848 -1.683,-4.13 -2.119,-6.846c-0.436,-2.717 -0.656,-6.357 -0.661,-10.921l-0.035,-31.459c-0.006,-5.977 0.151,-10.378 0.473,-13.203c0.644,-5.434 3.183,-9.509 7.619,-12.225c2.055,-1.413 5.14,-2.119 9.254,-2.119c3.248,0 6.144,0.733 8.69,2.2c2.546,1.467 4.74,3.559 6.584,6.276l0.324,0l-0.044,-40.913l16.563,0l0.127,116.056l-16.564,0Z" style="fill:#57cedc;fill-rule:nonzero;"/><path d="M464.948,88.617l-32.802,0l0.012,11.247c0.003,2.608 0.736,4.618 2.199,6.031c1.463,1.412 3.439,2.119 5.929,2.119c3.14,0 5.223,-0.924 6.249,-2.771c1.027,-1.848 1.647,-3.695 1.862,-5.542l16.563,0c0.008,7.28 -2.205,13.148 -6.638,17.604c-2.163,2.282 -4.759,4.075 -7.789,5.379c-3.03,1.304 -6.439,1.956 -10.228,1.956c-5.197,0 -9.61,-1.087 -13.239,-3.26c-3.629,-2.174 -6.42,-5.053 -8.372,-8.639c-1.193,-2.174 -2.008,-4.673 -2.444,-7.498c-0.436,-2.826 -0.656,-5.923 -0.66,-9.291l-0.03,-27.221c-0.003,-3.369 0.21,-6.466 0.64,-9.291c0.43,-2.826 1.239,-5.325 2.428,-7.498c1.944,-3.586 4.729,-6.466 8.353,-8.639c3.624,-2.174 8.035,-3.26 13.231,-3.26c3.789,0 7.227,0.652 10.314,1.956c3.087,1.304 5.714,3.097 7.882,5.379c4.336,4.89 6.507,11.029 6.515,18.419l0.025,22.82Zm-32.816,-13.04l16.238,0l-0.01,-9.454c-0.003,-3.152 -0.737,-5.515 -2.2,-7.091c-1.463,-1.575 -3.44,-2.363 -5.93,-2.363c-2.49,0 -4.464,0.788 -5.924,2.363c-1.46,1.576 -2.188,3.939 -2.185,7.091l0.011,9.454Z" style="fill:#57cedc;fill-rule:nonzero;"/><path d="M509.67,64.167c-0.111,-2.826 -1.007,-4.945 -2.686,-6.357c-1.68,-1.413 -3.602,-2.119 -5.768,-2.119c-2.598,0 -4.6,0.842 -6.005,2.526c-1.406,1.685 -2.107,3.613 -2.105,5.787c0.002,1.521 0.382,3.015 1.142,4.482c0.759,1.467 2.709,2.798 5.85,3.994l9.748,3.912c6.173,2.39 10.426,5.65 12.758,9.78c2.332,4.129 3.501,8.639 3.506,13.529c0.004,3.477 -0.615,6.71 -1.857,9.698c-1.242,2.989 -2.944,5.624 -5.107,7.906c-2.162,2.282 -4.759,4.075 -7.788,5.379c-3.03,1.304 -6.331,1.956 -9.904,1.956c-6.712,0 -12.344,-2.119 -16.895,-6.357c-2.276,-2.065 -4.119,-4.646 -5.53,-7.743c-1.411,-3.097 -2.172,-6.71 -2.285,-10.839l15.589,0c0.327,2.282 1.115,4.401 2.362,6.357c1.247,1.956 3.44,2.934 6.58,2.934c2.381,0 4.519,-0.788 6.411,-2.364c1.893,-1.575 2.838,-3.776 2.835,-6.601c-0.002,-2.282 -0.6,-4.238 -1.793,-5.868c-1.192,-1.63 -3.359,-3.043 -6.5,-4.238l-7.96,-2.934c-5.199,-1.956 -9.289,-4.863 -12.27,-8.721c-2.981,-3.857 -4.475,-8.557 -4.481,-14.099c-0.004,-3.478 0.642,-6.71 1.938,-9.699c1.296,-2.988 3.079,-5.569 5.35,-7.742c2.163,-2.174 4.706,-3.831 7.627,-4.972c2.922,-1.141 6.061,-1.711 9.417,-1.711c3.356,0 6.469,0.597 9.339,1.793c2.87,1.195 5.335,2.879 7.394,5.053c2.06,2.173 3.686,4.754 4.881,7.742c1.194,2.989 1.793,6.167 1.796,9.536l-15.589,0Z" style="fill:#57cedc;fill-rule:nonzero;"/><path d="M566.987,123.662l-0.019,-17.278l-32.965,0l-0.017,-15.648l23.781,-83.13l17.538,0l-24.755,83.13l16.401,0l-0.036,-33.089l16.564,0l0.036,33.089l7.957,0l0.017,15.648l-7.957,0l0.019,17.278l-16.564,0Z" style="fill:#57cedc;fill-rule:nonzero;"/><path d="M656.753,7.606l0.098,89.976c0.004,3.803 -0.669,7.308 -2.019,10.513c-1.349,3.206 -3.268,6.058 -5.755,8.558c-2.487,2.499 -5.354,4.455 -8.6,5.868c-3.246,1.412 -6.71,2.119 -10.391,2.119c-3.681,0 -7.119,-0.707 -10.314,-2.119c-3.195,-1.413 -6.039,-3.369 -8.532,-5.868c-2.492,-2.5 -4.444,-5.352 -5.855,-8.558c-1.411,-3.205 -2.118,-6.71 -2.122,-10.513l-0.099,-89.976l16.564,0l0.096,88.346c0.005,4.129 0.983,7.172 2.933,9.128c1.951,1.956 4.388,2.934 7.311,2.934c2.923,0 5.358,-0.978 7.304,-2.934c1.947,-1.956 2.918,-4.999 2.913,-9.128l-0.096,-88.346l16.564,0Z" style="fill:#57cedc;fill-rule:nonzero;"/><path d="M674.021,123.662l-0.018,-16.626l16.564,0l0.018,16.626l-16.564,0Z" style="fill:#57cedc;fill-rule:nonzero;"/><path d="M724.265,99.864c0.003,2.608 0.736,4.618 2.199,6.031c1.463,1.412 3.439,2.119 5.929,2.119c3.14,0 5.223,-0.924 6.249,-2.771c1.027,-1.848 1.647,-3.695 1.862,-5.542l16.563,0c0.008,7.28 -2.205,13.148 -6.638,17.604c-2.163,2.282 -4.759,4.075 -7.789,5.379c-3.03,1.304 -6.439,1.956 -10.229,1.956c-5.196,0 -9.609,-1.087 -13.238,-3.26c-3.629,-2.174 -6.42,-5.053 -8.372,-8.639c-1.193,-2.174 -2.008,-4.673 -2.444,-7.498c-0.436,-2.826 -0.656,-5.923 -0.66,-9.291l-0.03,-27.221c-0.003,-3.369 0.21,-6.466 0.64,-9.291c0.43,-2.826 1.239,-5.325 2.427,-7.498c1.945,-3.586 4.73,-6.466 8.354,-8.639c3.624,-2.174 8.035,-3.26 13.231,-3.26c3.789,0 7.227,0.652 10.314,1.956c3.087,1.304 5.714,3.097 7.882,5.379c4.335,4.89 6.508,11.247 6.516,19.071l-16.564,0c-0.003,-3.369 -0.737,-5.841 -2.2,-7.417c-1.463,-1.575 -3.44,-2.363 -5.93,-2.363c-2.49,0 -4.465,0.788 -5.924,2.363c-1.46,1.576 -2.188,3.939 -2.185,7.091l0.037,33.741Z" style="fill:#57cedc;fill-rule:nonzero;"/><path d="M767.843,68.731c-0.004,-3.369 0.209,-6.466 0.639,-9.291c0.43,-2.826 1.239,-5.325 2.428,-7.498c1.944,-3.586 4.729,-6.466 8.353,-8.639c3.625,-2.174 8.035,-3.26 13.231,-3.26c5.197,0 9.61,1.086 13.239,3.26c3.629,2.173 6.419,5.053 8.372,8.639c1.193,2.173 2.008,4.672 2.444,7.498c0.436,2.825 0.656,5.922 0.66,9.291l0.029,27.221c0.004,3.368 -0.209,6.465 -0.639,9.291c-0.43,2.825 -1.239,5.324 -2.428,7.498c-1.944,3.586 -4.729,6.465 -8.353,8.639c-3.625,2.173 -8.035,3.26 -13.231,3.26c-5.197,0 -9.61,-1.087 -13.239,-3.26c-3.629,-2.174 -6.419,-5.053 -8.372,-8.639c-1.193,-2.174 -2.008,-4.673 -2.444,-7.498c-0.436,-2.826 -0.656,-5.923 -0.66,-9.291l-0.029,-27.221Zm16.596,29.829c0.003,3.151 0.737,5.515 2.2,7.09c1.463,1.576 3.44,2.364 5.93,2.364c2.489,0 4.464,-0.788 5.924,-2.364c1.46,-1.575 2.188,-3.939 2.185,-7.09l-0.036,-32.437c-0.003,-3.152 -0.737,-5.515 -2.2,-7.091c-1.463,-1.575 -3.44,-2.363 -5.929,-2.363c-2.49,0 -4.465,0.788 -5.925,2.363c-1.46,1.576 -2.188,3.939 -2.185,7.091l0.036,32.437Z" style="fill:#57cedc;fill-rule:nonzero;"/><path d="M831.975,123.662l-0.09,-82.641l16.564,0l0.008,7.987l0.325,0c1.729,-2.608 3.811,-4.754 6.245,-6.439c2.434,-1.684 5.545,-2.526 9.335,-2.526c3.572,0 6.55,0.869 8.934,2.608c2.383,1.738 4.334,3.64 5.852,5.705c2.054,-2.282 4.326,-4.238 6.814,-5.868c2.488,-1.63 5.951,-2.445 10.39,-2.445c2.057,0 4.168,0.353 6.334,1.059c2.166,0.707 4.116,1.875 5.85,3.505c1.734,1.63 3.144,3.722 4.229,6.275c1.086,2.554 1.63,5.678 1.634,9.373l0.069,63.407l-16.563,0l-0.063,-57.213c-0.003,-3.043 -0.709,-5.434 -2.118,-7.172c-1.41,-1.739 -3.413,-2.608 -6.012,-2.608c-3.139,0 -5.303,0.978 -6.492,2.934c-1.189,1.956 -1.781,4.781 -1.777,8.476l0.061,55.583l-16.564,0l-0.062,-57.213c-0.004,-3.043 -0.71,-5.434 -2.119,-7.172c-1.41,-1.739 -3.413,-2.608 -6.012,-2.608c-3.139,0 -5.303,0.978 -6.492,2.934c-1.189,1.956 -1.781,4.781 -1.777,8.476l0.061,55.583l-16.564,0Z" style="fill:#57cedc;fill-rule:nonzero;"/></g></g></svg>
