<?xml version="1.0" encoding="UTF-8" standalone="no"?><!DOCTYPE svg PUBLIC "-//W3C//DTD SVG 1.1//EN" "http://www.w3.org/Graphics/SVG/1.1/DTD/svg11.dtd"><svg width="100%" height="100%" viewBox="0 0 931 137" version="1.1" xmlns="http://www.w3.org/2000/svg" xmlns:xlink="http://www.w3.org/1999/xlink" xml:space="preserve" xmlns:serif="http://www.serif.com/" style="fill-rule:evenodd;clip-rule:evenodd;stroke-linejoin:round;stroke-miterlimit:2;"><g id="Layer3"></g><g id="Layer6"><g transform="matrix(1,0,0.00109083,1,0.205927,0)"><text x="9.623px" y="122.709px" style="font-family:'DINCondensed-Bold', 'DIN Condensed';font-weight:700;font-stretch:condensed;font-size:163px;">B<tspan x="81.327px 114.059px 179.755px 242.366px 314.071px 346.803px 412.499px 475.11px 534.798px 597.734px 669.439px 702.17px 764.781px 827.392px " y="122.709px 122.709px 122.709px 122.709px 122.709px 122.709px 122.709px 122.709px 122.709px 122.709px 122.709px 122.709px 122.709px 122.709px ">ikeRides4U.com</tspan></text></g><g transform="matrix(1,0,0.00109083,1,0.196071,0)"><text x="-0.781px" y="131.745px" style="font-family:'DINCondensed-Bold', 'DIN Condensed';font-weight:700;font-stretch:condensed;font-size:163px;fill:#220d43;">B<tspan x="70.924px 103.655px 169.352px 231.963px 303.668px 336.399px 402.095px 464.707px 524.395px 587.33px 659.035px 691.767px 754.378px 816.989px " y="131.745px 131.745px 131.745px 131.745px 131.745px 131.745px 131.745px 131.745px 131.745px 131.745px 131.745px 131.745px 131.745px 131.745px ">ikeRides4U.com</tspan></text></g><g transform="matrix(1,0,0.00109083,1,0.205167,0)"><text x="6.201px" y="123.406px" style="font-family:'DINCondensed-Bold', 'DIN Condensed';font-weight:700;font-stretch:condensed;font-size:163px;fill:#e01d14;">B<tspan x="77.906px 110.638px 176.334px 238.945px 310.65px 343.381px 409.078px 471.689px 531.377px 594.313px 666.017px 698.749px 761.36px 823.971px " y="123.406px 123.406px 123.406px 123.406px 123.406px 123.406px 123.406px 123.406px 123.406px 123.406px 123.406px 123.406px 123.406px 123.406px ">ikeRides4U.com</tspan></text></g><g transform="matrix(1,0,0.00109083,1,0.199956,0)"><text x="3.267px" y="128.184px" style="font-family:'DINCondensed-Bold', 'DIN Condensed';font-weight:700;font-stretch:condensed;font-size:163px;fill:#008cd3;">B<tspan x="74.971px 107.703px 173.399px 236.01px 307.715px 340.447px 406.143px 468.754px 528.442px 591.378px 663.083px 695.814px 758.425px 821.036px " y="128.184px 128.184px 128.184px 128.184px 128.184px 128.184px 128.184px 128.184px 128.184px 128.184px 128.184px 128.184px 128.184px 128.184px ">ikeRides4U.com</tspan></text></g><g transform="matrix(1,0,0.00109083,1,0.202658,0)"><text x="4.802px" y="125.706px" style="font-family:'DINCondensed-Bold', 'DIN Condensed';font-weight:700;font-stretch:condensed;font-size:163px;fill:#da3d73;">B<tspan x="76.507px 109.239px 174.935px 237.546px 309.251px 341.982px 407.679px 470.29px 529.978px 592.914px 664.618px 697.35px 759.961px 822.572px " y="125.706px 125.706px 125.706px 125.706px 125.706px 125.706px 125.706px 125.706px 125.706px 125.706px 125.706px 125.706px 125.706px 125.706px ">ikeRides4U.com</tspan></text></g><g transform="matrix(1,0,0.00109083,1,0.201603,0)"><text x="7.532px" y="126.673px" style="font-family:'DINCondensed-Bold', 'DIN Condensed';font-weight:700;font-stretch:condensed;font-size:163px;fill:#57cedc;">B<tspan x="79.237px 111.968px 177.665px 240.276px 311.981px 344.712px 410.409px 473.02px 532.708px 595.643px 667.348px 700.08px 762.691px 825.302px " y="126.673px 126.673px 126.673px 126.673px 126.673px 126.673px 126.673px 126.673px 126.673px 126.673px 126.673px 126.673px 126.673px 126.673px ">ikeRides4U.com</tspan></text></g></g></svg>