<?xml version="1.0" encoding="utf-8"?><svg xml:space="preserve" viewBox="0 0 100 100" y="0" x="0" xmlns="http://www.w3.org/2000/svg" id="圖層_1" version="1.1" width="128px" height="128px" xmlns:xlink="http://www.w3.org/1999/xlink" style="width:100%;height:100%;background-size:initial;background-repeat-y:initial;background-repeat-x:initial;background-position-y:initial;background-position-x:initial;background-origin:initial;background-image:initial;background-color:rgb(255, 255, 255);background-clip:initial;background-attachment:initial;animation-play-state:paused" ><g class="ldl-scale" style="transform-origin:50% 50%;transform:rotate(0deg) scale(0.8, 0.8);animation-play-state:paused" ><g style="animation-play-state:paused" ><circle stroke-miterlimit="10" stroke-width="3.855" stroke="#333" fill="#fff" r="13.6" cy="61.7" cx="21.1" style="stroke:rgb(51, 51, 51);fill:rgb(255, 255, 255);animation-play-state:paused" ></circle>
<circle fill="#e0e0e0" r="5" cy="61.7" cx="21.1" style="fill:rgb(224, 224, 224);animation-play-state:paused" ></circle></g>
<g style="animation-play-state:paused" ><circle stroke-miterlimit="10" stroke-width="3.855" stroke="#333" fill="#fff" r="13.6" cy="61.7" cx="78.9" style="stroke:rgb(51, 51, 51);fill:rgb(255, 255, 255);animation-play-state:paused" ></circle>
<circle fill="#e0e0e0" r="5" cy="61.7" cx="78.9" style="fill:rgb(224, 224, 224);animation-play-state:paused" ></circle></g>
<g style="animation-play-state:paused" ><path fill="#77a4bd" d="M80.3 61L63.7 24.1c-.3-.8-1.3-1.1-2-.8-.8.3-1.1 1.3-.8 2l6.3 14H37.5L35 33.7 32.2 35l2.8 6.2-14.2 18.4c-.5.7-.6 1.6-.2 2.3.4.8 1.1 1.2 2 1.2h23.3l1-.4 22.3-19.1 8.3 18.5c.3.6.8.9 1.4.9.2 0 .4 0 .6-.1.8-.2 1.2-1.1.8-1.9zM36.4 44.4l7.1 15.8H24.3l12.1-15.8zm10 14.8l-7.5-16.7h27L46.4 59.2z" style="fill:rgb(119, 164, 189);animation-play-state:paused" ></path>
<path d="M28.9 34.4h10.4" stroke-miterlimit="10" stroke-linejoin="bevel" stroke-linecap="round" stroke-width="3.084" stroke="#c33737" fill="none" style="stroke:rgb(195, 55, 55);animation-play-state:paused" ></path>
<circle stroke-miterlimit="10" stroke-width="2.5" stroke="#77a4bd" fill="#a0c8d7" r="6.5" cy="61" cx="45.5" style="stroke:rgb(119, 164, 189);fill:rgb(160, 200, 215);animation-play-state:paused" ></circle>
<path d="M62.3 24.8h9.1" stroke-miterlimit="10" stroke-linejoin="bevel" stroke-linecap="round" stroke-width="3.084" stroke="#c33737" fill="none" style="stroke:rgb(195, 55, 55);animation-play-state:paused" ></path></g>
<metadata xmlns:d="https://loading.io/stock/" style="animation-play-state:paused" ><d:name style="animation-play-state:paused" >bike</d:name>
<d:tags style="animation-play-state:paused" >bicycle,cycling,ride,bike,transportation</d:tags>
<d:license style="animation-play-state:paused" >by</d:license>
<d:slug style="animation-play-state:paused" >5c9ekv</d:slug></metadata></g><!-- generated by https://loading.io/ --></svg>